<svg width="50" height="170" viewBox="0 0 50 170" fill="none" xmlns="http://www.w3.org/2000/svg">
<g opacity="0.2">
<g opacity="0.6">
<rect y="8" width="25" height="154" fill="#FBE947"/>
<path fill-rule="evenodd" clip-rule="evenodd" d="M0 162H25V170C11.1929 170 0 166.418 0 162Z" fill="#FBE947"/>
</g>
<g opacity="0.6">
<rect width="25" height="154" transform="matrix(-1 0 0 1 50 8)" fill="#FBE947"/>
<path fill-rule="evenodd" clip-rule="evenodd" d="M50 162H25V170C38.8071 170 50 166.418 50 162Z" fill="#FBE947"/>
</g>
<ellipse cx="25" cy="8" rx="25" ry="8" fill="#FBE947"/>
</g>
<g opacity="0.6">
<rect y="93" width="25" height="69" fill="#FBE947"/>
<path fill-rule="evenodd" clip-rule="evenodd" d="M0 162H25V170C11.1929 170 0 166.418 0 162Z" fill="#FBE947"/>
</g>
<g opacity="0.6">
<rect width="25" height="69" transform="matrix(-1 0 0 1 50 93)" fill="#FBE947"/>
<path fill-rule="evenodd" clip-rule="evenodd" d="M50 162H25V170C38.8071 170 50 166.418 50 162Z" fill="#FBE947"/>
</g>
<ellipse cx="25" cy="93" rx="25" ry="8" fill="#FBE947"/>
</svg>
