<svg width="33" height="33" viewBox="0 0 33 33" fill="none" xmlns="http://www.w3.org/2000/svg">
<g clip-path="url(#clip0_109_1548)">
<path d="M3.0907 25.6665C4.44263 27.547 6.17679 29.1204 8.17946 30.2837C10.1822 31.4469 12.4081 32.1737 14.7114 32.4164C13.5264 30.6332 11.8039 28.9927 9.6535 27.7437C7.50314 26.4947 5.22587 25.8124 3.0907 25.6665Z" fill="url(#paint0_linear_109_1548)"/>
<path d="M12.543 22.7704C8.40013 20.3635 3.9161 19.7501 0.707642 20.8337C1.01738 21.8574 1.42587 22.8486 1.92736 23.7933C4.71496 23.7287 7.75854 24.4858 10.5906 26.1307C13.4227 27.7756 15.5888 30.0458 16.9143 32.4999C17.9839 32.4671 19.0479 32.3308 20.0913 32.0931C19.4426 28.7697 16.6849 25.1778 12.543 22.7704Z" fill="url(#paint1_linear_109_1548)"/>
<path d="M32.2852 13.0009C31.7585 10.8584 30.8054 8.84403 29.4829 7.07804C28.1604 5.31205 26.4956 3.83067 24.5879 2.72235C22.6802 1.61403 20.5687 0.901503 18.3796 0.627309C16.1904 0.353115 13.9684 0.522879 11.8463 1.12647C15.3915 1.56033 19.3267 2.89122 23.1859 5.13324C27.0452 7.37525 30.1533 10.1341 32.2852 13.0009Z" fill="url(#paint2_linear_109_1548)"/>
<path d="M27.1271 20.8583C25.3124 17.8446 22.2038 14.9588 18.3743 12.7342C14.5449 10.5095 10.4991 9.23884 6.98529 9.15478C3.89398 9.08156 1.57387 9.98021 0.621532 11.6197C0.616108 11.6294 0.608516 11.6386 0.602551 11.6484C0.516862 11.9559 0.443103 12.2639 0.375854 12.5731C1.70566 12.0481 3.24643 11.7558 4.95967 11.7232C8.76957 11.6517 13.0334 12.8703 16.9681 15.1562C20.9027 17.4422 24.0759 20.5438 25.9003 23.8878C26.7182 25.3944 27.2285 26.8777 27.4308 28.2948C27.6662 28.0844 27.8972 27.8669 28.1212 27.6408C28.1272 27.6305 28.131 27.6196 28.1369 27.6088C29.0893 25.9677 28.721 23.5076 27.1271 20.8583Z" fill="url(#paint3_linear_109_1548)"/>
<path d="M15.4609 17.7485C9.59662 14.3416 3.11626 13.8079 0 16.1855C0.00612095 16.9297 0.0630166 17.6726 0.170293 18.4091C1.08699 18.1312 2.03177 17.9562 2.98718 17.8874C6.46951 17.6254 10.3087 18.5957 13.7927 20.6207C17.2766 22.6458 20.023 25.5018 21.5209 28.6543C21.935 29.518 22.2508 30.4254 22.4624 31.3595C23.1555 31.0878 23.8294 30.7694 24.4794 30.4066C25.0011 26.5213 21.3268 21.156 15.4609 17.7485Z" fill="url(#paint4_linear_109_1548)"/>
<path d="M30.1434 15.8141C28.3082 12.8036 25.1724 9.90968 21.3158 7.67038C17.4593 5.43108 13.3977 4.14032 9.87254 4.03673C7.18527 3.95918 5.10379 4.61052 4.02454 5.84108C8.50585 5.08181 14.4168 6.35793 20.146 9.68624C25.8753 13.0146 29.9135 17.5181 31.4722 21.7868C32.0064 20.2406 31.5416 18.1098 30.1434 15.8141Z" fill="url(#paint5_linear_109_1548)"/>
</g>
<defs>
<linearGradient id="paint0_linear_109_1548" x1="21.5" y1="6.9999" x2="6.66663" y2="32.4999" gradientUnits="userSpaceOnUse">
<stop offset="0.0001" stop-color="#C7F284"/>
<stop offset="1" stop-color="#00BEF0"/>
</linearGradient>
<linearGradient id="paint1_linear_109_1548" x1="21.5" y1="6.99991" x2="6.66665" y2="32.4999" gradientUnits="userSpaceOnUse">
<stop offset="0.0001" stop-color="#C7F284"/>
<stop offset="1" stop-color="#00BEF0"/>
</linearGradient>
<linearGradient id="paint2_linear_109_1548" x1="21.5" y1="7" x2="6.66668" y2="32.5" gradientUnits="userSpaceOnUse">
<stop offset="0.0001" stop-color="#C7F284"/>
<stop offset="1" stop-color="#00BEF0"/>
</linearGradient>
<linearGradient id="paint3_linear_109_1548" x1="21.5" y1="7.00004" x2="6.66666" y2="32.5" gradientUnits="userSpaceOnUse">
<stop offset="0.0001" stop-color="#C7F284"/>
<stop offset="1" stop-color="#00BEF0"/>
</linearGradient>
<linearGradient id="paint4_linear_109_1548" x1="21.5" y1="6.99997" x2="6.66667" y2="32.5" gradientUnits="userSpaceOnUse">
<stop offset="0.0001" stop-color="#C7F284"/>
<stop offset="1" stop-color="#00BEF0"/>
</linearGradient>
<linearGradient id="paint5_linear_109_1548" x1="21.5" y1="6.99999" x2="6.66664" y2="32.5" gradientUnits="userSpaceOnUse">
<stop offset="0.0001" stop-color="#C7F284"/>
<stop offset="1" stop-color="#00BEF0"/>
</linearGradient>
<clipPath id="clip0_109_1548">
<rect width="33" height="33" fill="white"/>
</clipPath>
</defs>
</svg>
