<svg width="80" height="50" viewBox="0 0 80 50" fill="none" xmlns="http://www.w3.org/2000/svg">
<g filter="url(#filter0_d_117_546)">
<path d="M5 25C5 13.9543 13.9543 5 25 5H55C66.0457 5 75 13.9543 75 25V25C75 36.0457 66.0457 45 55 45H25C13.9543 45 5 36.0457 5 25V25Z" fill="#D9F8FF" fill-opacity="0.1" shape-rendering="crispEdges"/>
<path d="M25 5.5H55C65.7696 5.5 74.5 14.2304 74.5 25C74.5 35.7696 65.7696 44.5 55 44.5H25C14.2304 44.5 5.5 35.7696 5.5 25C5.5 14.2304 14.2304 5.5 25 5.5Z" stroke="#D9F8FF" shape-rendering="crispEdges"/>
</g>
<defs>
<filter id="filter0_d_117_546" x="0" y="0" width="80" height="50" filterUnits="userSpaceOnUse" color-interpolation-filters="sRGB">
<feFlood flood-opacity="0" result="BackgroundImageFix"/>
<feColorMatrix in="SourceAlpha" type="matrix" values="0 0 0 0 0 0 0 0 0 0 0 0 0 0 0 0 0 0 127 0" result="hardAlpha"/>
<feOffset/>
<feGaussianBlur stdDeviation="2.5"/>
<feComposite in2="hardAlpha" operator="out"/>
<feColorMatrix type="matrix" values="0 0 0 0 0.85098 0 0 0 0 0.972549 0 0 0 0 1 0 0 0 1 0"/>
<feBlend mode="normal" in2="BackgroundImageFix" result="effect1_dropShadow_117_546"/>
<feBlend mode="normal" in="SourceGraphic" in2="effect1_dropShadow_117_546" result="shape"/>
</filter>
</defs>
</svg>
